<svg xmlns="http://www.w3.org/2000/svg" xmlns:xlink="http://www.w3.org/1999/xlink" width="12" height="15" viewBox="0 0 12 15"><defs><path id="yncwa" d="M2100 807.88v-.72h2.68v-1.08c0-.6.5-1.08 1.12-1.08h4.41c.62 0 1.12.49 1.12 1.08v1.08h2.67v.72h-.77l-.64 10.34c-.05.99-.9 1.78-1.92 1.78h-5.35c-1.01 0-1.87-.8-1.92-1.78l-.64-10.34zm8.58-.72v-1.2c0-.13-.17-.24-.37-.24h-4.42c-.2 0-.37.1-.37.24v1.2m-1.28 11.03c.03.6.56 1.09 1.18 1.09h5.35c.62 0 1.15-.5 1.18-1.1l.64-10.3h-9zm1.04-.87v-8h1.47v8zm2.45 0v-8h.74v8zm1.71 0v-8h1.47v8z"></defs><g><g transform="translate(-2100 -805)"><g><use fill="#f9435a" xlink:href="#yncwa"></g></g></g></svg>