<svg xmlns="http://www.w3.org/2000/svg" xmlns:xlink="http://www.w3.org/1999/xlink" width="2" height="8" viewBox="0 0 2 8"><defs><path id="go6ea" d="M46 344.08c0-.3.08-.52.24-.68.16-.15.4-.23.7-.23.3 0 .53.08.7.24.16.16.24.38.24.67a.9.9 0 0 1-.25.67.94.94 0 0 1-.68.25.96.96 0 0 1-.7-.24.9.9 0 0 1-.25-.68zm1.6-1.83h-1.3l-.28-5.25h1.86z"><path id="go6ec" d="M41 347v-12h12v12z"><clipPath id="go6eb"><use xlink:href="#go6ea"></clipPath></defs><g><g transform="translate(-46 -337)"><g><use xlink:href="#go6ea"></g><g clip-path="url(#go6eb)"><g><use fill="#f21f39" xlink:href="#go6ec"></g></g></g></g></svg>