<svg xmlns="http://www.w3.org/2000/svg" xmlns:xlink="http://www.w3.org/1999/xlink" width="85" height="25" viewBox="0 0 85 25"><defs><path id="gwsia" d="M193.18 977.46v-5.79l2.69-7.9h-2.08l-1.57 5.44h-.04l-1.58-5.44h-2.07l2.69 7.9v5.8zm-11.82 0v-5.84h1.17l1.82 5.84h2.08l-2.11-6.25a2.9 2.9 0 0 0 1.31-1.36c.25-.57.38-1.25.38-2.06 0-2.68-1.16-4.02-3.46-4.02h-3.15v13.7zm1.02-11.84c.67 0 1.14.18 1.38.53.11.2.2.42.23.69a6.39 6.39 0 0 1 0 1.82c-.04.27-.11.49-.21.67-.12.18-.28.31-.48.41-.2.1-.48.15-.83.15h-1.11v-4.27zm-6.4 11.84v-1.96h-3.89v-4.02h3.38v-1.84h-3.38v-4.02h3.88v-1.85h-5.84v13.7zm-14.65 0v-8.23h.04l3 8.23h1.84v-13.69h-1.96v8.25h-.04l-2.96-8.25h-1.88v13.7zm-5.94 0v-13.69h-1.96v13.7zm-12.9 0v-8.32h.04l1.92 5.88h.98l1.94-5.88h.04v8.32h1.96v-13.69h-1.9l-2.5 7.25h-.04l-2.52-7.25h-1.88v13.7z"><path id="gwsib" d="M126.4 974.34a29.9 29.9 0 0 0 4 3.64 10.35 10.35 0 0 1-7.52 2.77 25.36 25.36 0 0 1-1.47-5.74 29.76 29.76 0 0 0-1.16 5.29 10.45 10.45 0 0 1-6.15-5.14 25.33 25.33 0 0 1 4.24-4.15 29.7 29.7 0 0 0-5.16 1.64 10.39 10.39 0 0 1 1.37-7.9c1.9.24 4.03.94 5.7 1.6a29.72 29.72 0 0 0-4-3.65 10.36 10.36 0 0 1 7.53-2.77 25.4 25.4 0 0 1 1.47 5.75c.69-2.13 1.01-4.18 1.15-5.3 2.65.82 4.88 2.68 6.16 5.14a25.29 25.29 0 0 1-4.24 4.15 29.7 29.7 0 0 0 5.16-1.64 10.38 10.38 0 0 1-1.37 7.9c-1.9-.24-4.03-.94-5.7-1.6zm-6.85-6.39l.28-.85a26.23 26.23 0 0 0-4.78-1.43c-.39.71-.68 1.46-.87 2.24 1.49-.24 4.99 0 5.37.04zm3.96-2.18l.88-.18c-.3-1.9-.69-3.56-1.16-4.86-.8.02-1.6.15-2.37.37.95 1.17 2.49 4.32 2.65 4.67zm3.86 2.35c.19.2.39.42.6.67 1.5-1.2 2.73-2.37 3.62-3.43a9.25 9.25 0 0 0-1.5-1.87c-.53 1.4-2.5 4.31-2.72 4.63zm-.1 4.53l-.28.85c1.79.7 3.42 1.18 4.79 1.42.38-.7.67-1.45.86-2.23-1.48.24-4.98-.01-5.37-.04zm-3.96 2.17c-.26.07-.56.13-.87.19.29 1.89.68 3.55 1.16 4.85.8-.02 1.6-.14 2.36-.37-.95-1.16-2.48-4.31-2.65-4.67zm-3.86-2.35c-.19-.2-.39-.42-.6-.67a26.32 26.32 0 0 0-3.62 3.44c.42.68.92 1.3 1.5 1.86.53-1.4 2.5-4.31 2.72-4.63zm3.84 1.2a3.38 3.38 0 1 0 0-6.76 3.38 3.38 0 0 0 0 6.76z"><path id="gwsic" d="M119.03 981.06a11.41 11.41 0 0 1-6.1-6.1 11.4 11.4 0 0 1 0-8.92 11.42 11.42 0 0 1 10.56-7 11.36 11.36 0 0 1 8.09 3.36 11.44 11.44 0 0 1-3.64 18.66 11.37 11.37 0 0 1-8.9 0zm15.9-5.56a12.45 12.45 0 0 0 0-10v-6.46h-6.45a12.43 12.43 0 0 0-10 0h-6.44v6.46a12.45 12.45 0 0 0 0 10v6.46h6.45a12.42 12.42 0 0 0 10 0h6.44z"></defs><g><g transform="translate(-111 -958)"><g><use fill="#c2d6e8" xlink:href="#gwsia"></g><g><g><use fill="#c2d6e8" xlink:href="#gwsib"></g><g><use fill="#c2d6e8" xlink:href="#gwsic"></g></g></g></g></svg>