<svg xmlns="http://www.w3.org/2000/svg" xmlns:xlink="http://www.w3.org/1999/xlink" width="93" height="27" viewBox="0 0 93 27"><defs><path id="5huca" d="M202.08 271.6v-6l2.92-8.21h-2.25l-1.71 5.65H201l-1.71-5.65h-2.26l2.92 8.2v6.01zm-12.83 0v-6.07h1.27l1.98 6.07h2.25l-2.3-6.49a3.08 3.08 0 0 0 1.44-1.41c.27-.59.4-1.3.4-2.14 0-2.78-1.25-4.17-3.75-4.17h-3.42v14.21zm1.1-12.3c.74 0 1.24.2 1.5.56.13.2.21.44.25.71a6.34 6.34 0 0 1 0 1.9c-.04.27-.11.5-.23.69-.12.18-.3.33-.52.43-.22.1-.52.15-.9.15h-1.2v-4.43zm-6.95 12.3v-2.04h-4.22v-4.17h3.68v-1.91h-3.68v-4.17h4.22v-1.92h-6.34v14.21zm-15.9 0v-8.54h.03l3.25 8.54h2V257.4h-2.12v8.56h-.04l-3.21-8.56h-2.04v14.21zm-6.46 0V257.4h-2.13v14.21zm-14 0v-8.64h.04l2.09 6.1h1.06l2.1-6.1h.05v8.64h2.13V257.4h-2.07l-2.71 7.52h-.04l-2.74-7.52h-2.04v14.21z"><path id="5hucb" d="M128.76 268.65c1.62 1.8 3.37 3.2 4.34 3.94a11.29 11.29 0 0 1-8.18 2.99 27.24 27.24 0 0 1-1.6-6.2c-.75 2.3-1.1 4.5-1.25 5.71a11.34 11.34 0 0 1-6.7-5.55 27.46 27.46 0 0 1 4.6-4.48c-2.37.5-4.47 1.3-5.6 1.77a11.16 11.16 0 0 1 1.49-8.54c2.07.26 4.38 1.02 6.2 1.73a32.24 32.24 0 0 0-4.34-3.94 11.3 11.3 0 0 1 8.18-2.99c.8 1.91 1.3 4.28 1.6 6.2.74-2.3 1.1-4.5 1.25-5.71 2.88.89 5.3 2.89 6.7 5.55a27.41 27.41 0 0 1-4.61 4.48c2.37-.5 4.48-1.3 5.6-1.77a11.15 11.15 0 0 1-1.49 8.54 27.7 27.7 0 0 1-6.2-1.73zm-7.45-6.89l.3-.92a28.66 28.66 0 0 0-5.2-1.55 10 10 0 0 0-.95 2.43c1.62-.27 5.43 0 5.85.04zm4.3-2.34l.95-.2a28.67 28.67 0 0 0-1.27-5.28c-.87.02-1.73.16-2.56.4 1.04 1.27 2.7 4.7 2.88 5.08zm4.2 2.53l.64.73a28.58 28.58 0 0 0 3.94-3.74c-.45-.74-1-1.42-1.63-2.02-.58 1.53-2.71 4.69-2.95 5.03zm-.11 4.87l-.3.92c1.93.75 3.72 1.28 5.2 1.55a10 10 0 0 0 .95-2.43c-1.62.26-5.43 0-5.85-.04zm-4.3 2.33l-.96.2c.32 2.06.75 3.87 1.27 5.28a10 10 0 0 0 2.57-.4c-1.04-1.26-2.71-4.7-2.89-5.08zm-4.2-2.52c-.21-.22-.43-.47-.65-.73a28.58 28.58 0 0 0-3.95 3.74c.46.74 1 1.42 1.64 2.02.57-1.53 2.7-4.69 2.95-5.03zm4.16 1.32a3.66 3.66 0 0 0 3.67-3.66 3.66 3.66 0 0 0-7.33 0 3.66 3.66 0 0 0 3.66 3.66z"><path id="5hucc" d="M120.73 275.9a12.42 12.42 0 0 1-7.6-11.4 12.22 12.22 0 0 1 3.65-8.75 12.41 12.41 0 0 1 8.8-3.62 12.42 12.42 0 0 1 12.44 12.37 12.23 12.23 0 0 1-3.64 8.75 12.43 12.43 0 0 1-13.65 2.65zm17.3-6a13.37 13.37 0 0 0 0-10.8v-6.97H131a13.6 13.6 0 0 0-10.87 0h-7v6.97a13.37 13.37 0 0 0 0 10.8v6.97h7a13.58 13.58 0 0 0 10.87 0h7.01z"></defs><g><g transform="translate(-112 -251)"><g><use fill="#354167" xlink:href="#5huca"></g><g><g><use fill="#354167" xlink:href="#5hucb"></g><g><use fill="#354167" xlink:href="#5hucc"></g></g></g></g></svg>