<svg xmlns="http://www.w3.org/2000/svg" xmlns:xlink="http://www.w3.org/1999/xlink" width="62" height="18" viewBox="0 0 62 18"><defs><path id="pa25a" d="M301.05 68.73v-4l1.95-5.47h-1.5l-1.14 3.77h-.03l-1.14-3.77h-1.5l1.95 5.47v4zm-8.55 0V64.7h.85l1.32 4.04h1.5l-1.53-4.32c.45-.24.77-.56.95-.95.18-.39.27-.86.27-1.42 0-1.85-.83-2.78-2.5-2.78h-2.28v9.47zm.73-8.2c.49 0 .82.13 1 .38.08.13.13.29.16.47a4.25 4.25 0 0 1 0 1.27c-.03.18-.08.33-.15.46a.8.8 0 0 1-.35.28c-.14.07-.34.1-.59.1h-.8v-2.95zm-4.63 8.2v-1.35h-2.81V64.6h2.45v-1.28h-2.45v-2.78h2.8v-1.28h-4.22v9.47zm-10.6 0v-5.7h.02l2.17 5.7h1.34v-9.47h-1.42v5.7h-.03l-2.14-5.7h-1.36v9.47zm-4.32 0v-9.47h-1.4v9.47zm-9.32 0v-5.76h.03l1.39 4.07h.7l1.41-4.07h.03v5.76h1.42v-9.47h-1.38l-1.8 5.02h-.04l-1.82-5.02h-1.36v9.47z"><path id="pa25b" d="M252.17 66.76a21.63 21.63 0 0 0 2.9 2.63 7.53 7.53 0 0 1-5.46 1.99 18.16 18.16 0 0 1-1.06-4.14c-.5 1.53-.74 3-.84 3.81a7.56 7.56 0 0 1-4.47-3.7 18.3 18.3 0 0 1 3.08-2.98c-1.59.33-2.99.86-3.74 1.18a7.44 7.44 0 0 1 1-5.7c1.37.18 2.91.68 4.13 1.16a21.5 21.5 0 0 0-2.9-2.63 7.53 7.53 0 0 1 5.45-2 18.2 18.2 0 0 1 1.07 4.14c.5-1.53.73-3 .84-3.8a7.56 7.56 0 0 1 4.46 3.7 18.27 18.27 0 0 1-3.07 2.98c1.58-.33 2.98-.87 3.73-1.18a7.44 7.44 0 0 1-1 5.7 18.46 18.46 0 0 1-4.12-1.16zm-4.97-4.6l.2-.6c-1.3-.51-2.48-.86-3.47-1.04a6.67 6.67 0 0 0-.63 1.62c1.08-.18 3.62 0 3.9.03zm2.87-1.56l.63-.13c-.21-1.37-.5-2.57-.84-3.52a6.6 6.6 0 0 0-1.7.27c.68.84 1.8 3.13 1.91 3.38zm2.8 1.7l.43.47a19.14 19.14 0 0 0 2.62-2.49 6.6 6.6 0 0 0-1.08-1.34 23.93 23.93 0 0 1-1.97 3.35zm-.08 3.24c-.05.19-.12.4-.2.6 1.3.5 2.48.86 3.47 1.03.28-.5.49-1.04.63-1.6-1.08.17-3.62 0-3.9-.03zm-2.87 1.56l-.63.13c.2 1.37.5 2.57.84 3.52.58-.02 1.16-.1 1.71-.27-.69-.84-1.8-3.13-1.92-3.38zm-2.8-1.69l-.43-.48a19.06 19.06 0 0 0-2.62 2.49c.3.5.66.95 1.08 1.35.39-1.02 1.81-3.13 1.97-3.36zm2.79.87c1.34 0 2.44-1.09 2.44-2.43a2.44 2.44 0 0 0-4.89 0c0 1.34 1.1 2.43 2.45 2.43z"><path id="pa25c" d="M246.82 71.6a8.28 8.28 0 0 1-4.41-10.81 8.22 8.22 0 0 1 4.41-4.4 8.3 8.3 0 0 1 9.1 1.78 8.23 8.23 0 0 1-5.86 14.08 8.3 8.3 0 0 1-3.24-.65zm11.53-4a8.91 8.91 0 0 0 0-7.2v-4.65h-4.68a9.06 9.06 0 0 0-7.24 0h-4.68v4.65a8.91 8.91 0 0 0 0 7.2v4.65h4.68a9.05 9.05 0 0 0 7.24 0h4.68z"></defs><g><g transform="translate(-241 -55)"><g><use fill="#0e152b" xlink:href="#pa25a"></g><g><g><use fill="#0e152b" xlink:href="#pa25b"></g><g><use fill="#0e152b" xlink:href="#pa25c"></g></g></g></g></svg>